<svg xmlns="http://www.w3.org/2000/svg" width="132" height="34" fill="none"><path fill="#fff" d="M64.892 20.128c0-7.24-10.536-4.944-10.536-9.064 0-1.678 1.206-2.472 2.825-2.413 1.766.029 2.855 1.088 2.943 2.442h4.532c-.265-3.708-3.149-5.856-7.357-5.856-4.238 0-7.24 2.236-7.24 5.944-.03 7.446 10.565 4.768 10.565 9.212 0 1.472-1.148 2.502-3.09 2.502-1.913 0-3.002-1.09-3.12-2.737H50c.059 3.884 3.355 6.121 7.622 6.121 4.68 0 7.27-2.913 7.27-6.15Zm2.512-2.236c0 5.003 3.385 8.416 7.505 8.416 2.472 0 4.326-1.177 5.327-2.472v10.007h4.15V9.769h-4.15v2.119c-1.001-1.266-2.796-2.355-5.239-2.355-4.208 0-7.593 3.356-7.593 8.359Zm12.832.029c0 3.149-2.178 4.797-4.327 4.797-2.119 0-4.296-1.677-4.296-4.826 0-3.15 2.177-4.768 4.296-4.768 2.149 0 4.327 1.648 4.327 4.797Zm23.565-8.152h-4.15v8.976c0 2.62-1.412 4.032-3.649 4.032-2.178 0-3.62-1.413-3.62-4.032V9.769h-4.12v9.565c0 4.473 2.737 6.945 6.534 6.945 2.03 0 3.825-.883 4.856-2.266v2.06h4.149V9.77Zm4.065 16.304h4.121V9.77h-4.121v16.304Zm2.09-18.246c1.442 0 2.531-1.06 2.531-2.414S111.398 3 109.956 3c-1.472 0-2.531 1.06-2.531 2.413 0 1.354 1.059 2.414 2.531 2.414Zm5.042 10.035c0 5.091 3.296 8.476 7.446 8.476 2.56 0 4.385-1.177 5.356-2.678v2.413h4.179V4.295H127.8v7.74c-1.118-1.53-3.179-2.531-5.327-2.531-4.179 0-7.475 3.267-7.475 8.358Zm12.831.059c0 3.09-2.06 4.797-4.326 4.797-2.207 0-4.297-1.766-4.297-4.856s2.09-4.738 4.297-4.738c2.266 0 4.326 1.707 4.326 4.797Zm-89.141 2.02c-2.964-2.874-7.79-2.797-10.76.17l-2.183 2.183-2.136-2.135 4.058-4.056c3.487-3.486 3.487-9.159 0-12.644l-.841-.841A8.894 8.894 0 0 0 20.5 0a8.882 8.882 0 0 0-6.324 2.618l-.841.841c-3.487 3.485-3.487 9.158 0 12.643l4.058 4.057-2.136 2.135-2.271-2.271a7.582 7.582 0 0 0-5.38-2.223 7.58 7.58 0 0 0-5.378 2.223A7.559 7.559 0 0 0 0 25.4a7.55 7.55 0 0 0 2.228 5.377A7.555 7.555 0 0 0 7.607 33a7.554 7.554 0 0 0 5.378-2.223l2.272-2.27 2.327 2.33a4.092 4.092 0 0 0 2.912 1.208c1.1 0 2.135-.429 2.913-1.206l2.336-2.335 2.184 2.183a7.734 7.734 0 0 0 5.504 2.276c2.08 0 3.854-.75 5.255-2.107A7.546 7.546 0 0 0 41 25.4a7.546 7.546 0 0 0-2.312-5.458ZM9.878 27.67a3.19 3.19 0 0 1-2.271.938c-.86 0-1.666-.334-2.272-.938a3.185 3.185 0 0 1-.94-2.271c0-.859.333-1.665.94-2.27a3.192 3.192 0 0 1 2.272-.94 3.19 3.19 0 0 1 2.272.94l2.272 2.27-2.272 2.27Zm10.62-.132-.782-.782-1.354-1.355 2.114-2.115.176.134 1.98 1.979-2.139 2.137.005.002Zm1.49-11.97-1.486 1.485-4.058-4.056a4.554 4.554 0 0 1 0-6.433l.841-.84a4.522 4.522 0 0 1 3.217-1.334c1.215 0 2.358.472 3.217 1.333l.841.841a4.554 4.554 0 0 1 0 6.433l-2.572 2.572ZM35.63 27.706a3.134 3.134 0 0 1-2.197.876 3.387 3.387 0 0 1-2.395-.997l-2.184-2.183 2.184-2.183c1.28-1.28 3.342-1.335 4.592-.123.63.61.978 1.43.978 2.306a3.18 3.18 0 0 1-.978 2.306v-.002Z"/></svg>
